<mxfile>
    <diagram id="uYwr1LiyfL_44ugBRfh7" name="Page-1">
        <mxGraphModel dx="4117" dy="2683" grid="1" gridSize="10" guides="1" tooltips="1" connect="1" arrows="1" fold="1" page="0" pageScale="1" pageWidth="827" pageHeight="1169" background="none" math="0" shadow="0">
            <root>
                <mxCell id="0"/>
                <mxCell id="1" parent="0"/>
                <mxCell id="8" value="Actor" style="shape=umlActor;verticalLabelPosition=bottom;verticalAlign=top;html=1;outlineConnect=0;fillColor=none;gradientColor=none;" vertex="1" parent="1">
                    <mxGeometry x="-1040" y="270" width="190" height="290" as="geometry"/>
                </mxCell>
            </root>
        </mxGraphModel>
    </diagram>
</mxfile>